<svg width="190" height="70" viewBox="0 0 190 70" fill="none" xmlns="http://www.w3.org/2000/svg">
<rect width="5" height="5" fill="#D22323" fill-opacity="0.15"/>
<rect y="20" width="5" height="5" fill="#D22323" fill-opacity="0.15"/>
<rect x="20" width="5" height="5" fill="#D22323" fill-opacity="0.15"/>
<rect x="20" y="20" width="5" height="5" fill="#D22323" fill-opacity="0.15"/>
<rect x="40" width="5" height="5" fill="#D22323" fill-opacity="0.15"/>
<rect x="40" y="20" width="5" height="5" fill="#D22323" fill-opacity="0.15"/>
<rect x="60" width="5" height="5" fill="#D22323" fill-opacity="0.15"/>
<rect x="60" y="20" width="5" height="5" fill="#D22323" fill-opacity="0.15"/>
<rect x="80" y="1.52588e-05" width="5" height="5" fill="#D22323" fill-opacity="0.15"/>
<rect x="80" y="20" width="5" height="5" fill="#D22323" fill-opacity="0.15"/>
<rect x="100" y="1.52588e-05" width="5" height="5" fill="#D22323" fill-opacity="0.15"/>
<rect x="100" y="20" width="5" height="5" fill="#D22323" fill-opacity="0.15"/>
<rect x="120" y="1.52588e-05" width="5" height="5" fill="#D22323" fill-opacity="0.15"/>
<rect x="120" y="20" width="5" height="5" fill="#D22323" fill-opacity="0.15"/>
<rect x="140" y="1.52588e-05" width="5" height="5" fill="#D22323" fill-opacity="0.15"/>
<rect x="140" y="20" width="5" height="5" fill="#D22323" fill-opacity="0.15"/>
<rect x="160" y="3.05176e-05" width="5" height="5" fill="#D22323" fill-opacity="0.15"/>
<rect x="160" y="20" width="5" height="5" fill="#D22323" fill-opacity="0.15"/>
<rect x="180" y="3.05176e-05" width="5" height="5" fill="#D22323" fill-opacity="0.15"/>
<rect x="180" y="20" width="5" height="5" fill="#D22323" fill-opacity="0.15"/>
<rect y="40" width="5" height="5" fill="#D22323" fill-opacity="0.15"/>
<rect y="60" width="5" height="5" fill="#D22323" fill-opacity="0.15"/>
<rect x="20" y="40" width="5" height="5" fill="#D22323" fill-opacity="0.15"/>
<rect x="20" y="60" width="5" height="5" fill="#D22323" fill-opacity="0.15"/>
<rect x="40" y="40" width="5" height="5" fill="#D22323" fill-opacity="0.15"/>
<rect x="40" y="60" width="5" height="5" fill="#D22323" fill-opacity="0.15"/>
<rect x="60" y="40" width="5" height="5" fill="#D22323" fill-opacity="0.15"/>
<rect x="60" y="60" width="5" height="5" fill="#D22323" fill-opacity="0.15"/>
<rect x="80" y="40" width="5" height="5" fill="#D22323" fill-opacity="0.15"/>
<rect x="80" y="60" width="5" height="5" fill="#D22323" fill-opacity="0.15"/>
<rect x="100" y="40" width="5" height="5" fill="#D22323" fill-opacity="0.15"/>
<rect x="100" y="60" width="5" height="5" fill="#D22323" fill-opacity="0.15"/>
<rect x="120" y="40" width="5" height="5" fill="#D22323" fill-opacity="0.15"/>
<rect x="120" y="60" width="5" height="5" fill="#D22323" fill-opacity="0.15"/>
<rect x="140" y="40" width="5" height="5" fill="#D22323" fill-opacity="0.15"/>
<rect x="140" y="60" width="5" height="5" fill="#D22323" fill-opacity="0.15"/>
<rect x="160" y="40" width="5" height="5" fill="#D22323" fill-opacity="0.15"/>
<rect x="160" y="60" width="5" height="5" fill="#D22323" fill-opacity="0.15"/>
<rect x="180" y="40" width="5" height="5" fill="#D22323" fill-opacity="0.15"/>
<rect x="180" y="60" width="5" height="5" fill="#D22323" fill-opacity="0.15"/>
</svg>
