<svg width="70" height="190" viewBox="0 0 70 190" fill="none" xmlns="http://www.w3.org/2000/svg">
<rect x="70" width="5" height="5" transform="rotate(90 70 0)" fill="#D22323" fill-opacity="0.15"/>
<rect x="50" width="5" height="5" transform="rotate(90 50 0)" fill="#D22323" fill-opacity="0.15"/>
<rect x="70" y="20" width="5" height="5" transform="rotate(90 70 20)" fill="#D22323" fill-opacity="0.15"/>
<rect x="50" y="20" width="5" height="5" transform="rotate(90 50 20)" fill="#D22323" fill-opacity="0.15"/>
<rect x="70" y="40" width="5" height="5" transform="rotate(90 70 40)" fill="#D22323" fill-opacity="0.15"/>
<rect x="50" y="40" width="5" height="5" transform="rotate(90 50 40)" fill="#D22323" fill-opacity="0.15"/>
<rect x="70" y="60" width="5" height="5" transform="rotate(90 70 60)" fill="#D22323" fill-opacity="0.15"/>
<rect x="50" y="60" width="5" height="5" transform="rotate(90 50 60)" fill="#D22323" fill-opacity="0.15"/>
<rect x="70" y="80" width="5" height="5" transform="rotate(90 70 80)" fill="#D22323" fill-opacity="0.15"/>
<rect x="50" y="80" width="5" height="5" transform="rotate(90 50 80)" fill="#D22323" fill-opacity="0.15"/>
<rect x="70" y="100" width="5" height="5" transform="rotate(90 70 100)" fill="#D22323" fill-opacity="0.15"/>
<rect x="50" y="100" width="5" height="5" transform="rotate(90 50 100)" fill="#D22323" fill-opacity="0.15"/>
<rect x="70" y="120" width="5" height="5" transform="rotate(90 70 120)" fill="#D22323" fill-opacity="0.15"/>
<rect x="50" y="120" width="5" height="5" transform="rotate(90 50 120)" fill="#D22323" fill-opacity="0.15"/>
<rect x="70" y="140" width="5" height="5" transform="rotate(90 70 140)" fill="#D22323" fill-opacity="0.15"/>
<rect x="50" y="140" width="5" height="5" transform="rotate(90 50 140)" fill="#D22323" fill-opacity="0.15"/>
<rect x="70" y="160" width="5" height="5" transform="rotate(90 70 160)" fill="#D22323" fill-opacity="0.15"/>
<rect x="50" y="160" width="5" height="5" transform="rotate(90 50 160)" fill="#D22323" fill-opacity="0.15"/>
<rect x="70" y="180" width="5" height="5" transform="rotate(90 70 180)" fill="#D22323" fill-opacity="0.15"/>
<rect x="50" y="180" width="5" height="5" transform="rotate(90 50 180)" fill="#D22323" fill-opacity="0.15"/>
<rect x="30" width="5" height="5" transform="rotate(90 30 0)" fill="#D22323" fill-opacity="0.15"/>
<rect x="10" width="5" height="5" transform="rotate(90 10 0)" fill="#D22323" fill-opacity="0.15"/>
<rect x="30" y="20" width="5" height="5" transform="rotate(90 30 20)" fill="#D22323" fill-opacity="0.15"/>
<rect x="10" y="20" width="5" height="5" transform="rotate(90 10 20)" fill="#D22323" fill-opacity="0.15"/>
<rect x="30" y="40" width="5" height="5" transform="rotate(90 30 40)" fill="#D22323" fill-opacity="0.15"/>
<rect x="10" y="40" width="5" height="5" transform="rotate(90 10 40)" fill="#D22323" fill-opacity="0.15"/>
<rect x="30" y="60" width="5" height="5" transform="rotate(90 30 60)" fill="#D22323" fill-opacity="0.15"/>
<rect x="10" y="60" width="5" height="5" transform="rotate(90 10 60)" fill="#D22323" fill-opacity="0.15"/>
<rect x="30" y="80" width="5" height="5" transform="rotate(90 30 80)" fill="#D22323" fill-opacity="0.15"/>
<rect x="10" y="80" width="5" height="5" transform="rotate(90 10 80)" fill="#D22323" fill-opacity="0.15"/>
<rect x="30" y="100" width="5" height="5" transform="rotate(90 30 100)" fill="#D22323" fill-opacity="0.15"/>
<rect x="10" y="100" width="5" height="5" transform="rotate(90 10 100)" fill="#D22323" fill-opacity="0.15"/>
<rect x="30" y="120" width="5" height="5" transform="rotate(90 30 120)" fill="#D22323" fill-opacity="0.15"/>
<rect x="10" y="120" width="5" height="5" transform="rotate(90 10 120)" fill="#D22323" fill-opacity="0.15"/>
<rect x="30" y="140" width="5" height="5" transform="rotate(90 30 140)" fill="#D22323" fill-opacity="0.15"/>
<rect x="10" y="140" width="5" height="5" transform="rotate(90 10 140)" fill="#D22323" fill-opacity="0.15"/>
<rect x="30" y="160" width="5" height="5" transform="rotate(90 30 160)" fill="#D22323" fill-opacity="0.15"/>
<rect x="10" y="160" width="5" height="5" transform="rotate(90 10 160)" fill="#D22323" fill-opacity="0.15"/>
<rect x="30" y="180" width="5" height="5" transform="rotate(90 30 180)" fill="#D22323" fill-opacity="0.15"/>
<rect x="10" y="180" width="5" height="5" transform="rotate(90 10 180)" fill="#D22323" fill-opacity="0.15"/>
</svg>
