<svg width="35" height="36" viewBox="0 0 35 36" fill="none" xmlns="http://www.w3.org/2000/svg">
<g clip-path="url(#clip0_115_2006)">
<path d="M30.625 15.0833C30.625 25.2916 17.5 34.0416 17.5 34.0416C17.5 34.0416 4.375 25.2916 4.375 15.0833C4.375 11.6023 5.75781 8.26389 8.21922 5.80247C10.6806 3.34106 14.019 1.95825 17.5 1.95825C20.981 1.95825 24.3194 3.34106 26.7808 5.80247C29.2422 8.26389 30.625 11.6023 30.625 15.0833Z" stroke="#D2232C" stroke-width="2" stroke-linecap="round" stroke-linejoin="round"/>
<path d="M17.5 19.4583C19.9162 19.4583 21.875 17.4995 21.875 15.0833C21.875 12.667 19.9162 10.7083 17.5 10.7083C15.0838 10.7083 13.125 12.667 13.125 15.0833C13.125 17.4995 15.0838 19.4583 17.5 19.4583Z" stroke="#D2232C" stroke-width="2" stroke-linecap="round" stroke-linejoin="round"/>
</g>
<defs>
<clipPath id="clip0_115_2006">
<rect width="35" height="35" fill="white" transform="translate(0 0.5)"/>
</clipPath>
</defs>
</svg>
